<?xml version="1.0" encoding="UTF-8"?>
<svg width="12px" height="20px" viewBox="0 0 12 20" version="1.1" xmlns="http://www.w3.org/2000/svg" xmlns:xlink="http://www.w3.org/1999/xlink">
    <!-- Generator: sketchtool 53.2 (72643) - https://sketchapp.com -->
    <title>3A9FB1C0-AB31-4E7C-A404-20C179357EC7</title>
    <desc>Created with sketchtool.</desc>
    <g id="Dekstop" stroke="none" stroke-width="1" fill="none" fill-rule="evenodd">
        <g id="Footer" transform="translate(-99.000000, -605.000000)" fill="#000000" fill-rule="nonzero" stroke="#000000" stroke-width="0.11">
            <g id="Media-social" transform="translate(100.000000, 606.000000)">
                <g id="facebook">
                    <path d="M6.54369341,18 L2.32436432,18 L2.32436432,9.92950243 L0,9.92950243 L0,6.22308307 L2.32429644,6.22308307 L2.32429644,4.14180523 C2.32429644,2.23108 3.62647805,0 7.29795957,0 C8.59226728,0 9.54243087,0.111354596 9.5821398,0.116152752 L9.97169466,0.162638778 L9.87788653,3.6312067 L9.44862274,3.62759251 C9.44774032,3.62759251 8.48318649,3.61918016 7.43100148,3.61918016 C6.64795482,3.61918016 6.54410068,3.79658729 6.54410068,4.50222772 L6.54410068,6.22389315 L10,6.22389315 L9.80851468,9.9303125 L6.54450795,9.9303125 L6.54450795,18 L6.54369341,18 Z M3.19633184,17.1990196 L5.6707077,17.1990196 L5.6707077,9.12895822 L8.97483064,9.12895822 L9.08391143,7.02406348 L5.6707077,7.02406348 L5.6707077,4.50141764 C5.6707077,3.66840799 5.8796378,2.81738968 7.43005118,2.81738968 C8.05304028,2.81738968 8.64500889,2.8201938 9.02580742,2.82299791 L9.07861691,0.873077362 C8.69340628,0.841421999 8.05256513,0.800980402 7.29700927,0.800980402 C4.27342827,0.800980402 3.19585669,2.52663392 3.19585669,4.14180523 L3.19585669,7.02406348 L0.871628134,7.02406348 L0.871628134,9.12895822 L3.19592457,9.12895822 L3.19592457,17.1990196 L3.19633184,17.1990196 Z" id="Facebook"></path>
                </g>
            </g>
        </g>
    </g>
</svg>