<?xml version="1.0" encoding="UTF-8"?>
<svg width="18px" height="18px" viewBox="0 0 18 18" version="1.1" xmlns="http://www.w3.org/2000/svg" xmlns:xlink="http://www.w3.org/1999/xlink">
    <!-- Generator: sketchtool 53.2 (72643) - https://sketchapp.com -->
    <title>88750142-14D2-4E8E-9939-945533BDCD70</title>
    <desc>Created with sketchtool.</desc>
    <g id="Dekstop" stroke="none" stroke-width="1" fill="none" fill-rule="evenodd">
        <g id="Footer" transform="translate(-150.000000, -606.000000)" fill="#000000" fill-rule="nonzero">
            <g id="Media-social" transform="translate(100.000000, 606.000000)">
                <g id="instagram" transform="translate(50.000000, 0.000000)">
                    <path d="M13.1275635,0 C15.81427,9.99200722e-16 18,2.18572998 18,4.87243652 L18,13.1277008 C18,15.81427 15.81427,18 13.1277008,18 L4.87243652,18 C2.18572998,18 0,15.81427 0,13.1277008 L0,4.87243652 C0,2.18572998 2.18572998,0 4.87243652,0 L13.1275635,0 Z M16.9447632,13.1277008 L16.9447632,4.87243652 C16.9447632,2.76759338 15.2324066,1.05523682 13.1277008,1.05523682 L4.87243652,1.05523682 C2.76759338,1.05523682 1.05523682,2.76759338 1.05523682,4.87243652 L1.05523682,13.1277008 C1.05523682,15.2324066 2.76759338,16.9447632 4.87243652,16.9447632 L13.1275635,16.9447632 C15.2324066,16.9447632 16.9447632,15.2324066 16.9447632,13.1277008 Z M9,4 C11.7570524,4 14,6.24294765 14,9 C14,11.7570524 11.7570524,14 9,14 C6.24294765,14 4,11.7570524 4,9 C4,6.24294765 6.24294765,4 9,4 Z M9,12.9279835 C11.1659365,12.9279835 12.9279835,11.1659365 12.9279835,9 C12.9279835,6.83420297 11.1659365,5.07201652 9,5.07201652 C6.83420297,5.07201652 5.07201652,6.83420297 5.07201652,9 C5.07201652,11.1659365 6.83420297,12.9279835 9,12.9279835 Z M14.4999292,2 C15.3270856,2 16,2.67277278 16,3.49992919 C16,4.32708559 15.3270856,5 14.4999292,5 C13.6727728,5 13,4.32708559 13,3.49992919 C13,2.67291441 13.6727728,2 14.4999292,2 Z M14.4999292,3.91152446 C14.7269723,3.91152446 14.9116661,3.72683063 14.9116661,3.49992919 C14.9116661,3.27288607 14.7269723,3.08833387 14.4999292,3.08833387 C14.2730277,3.08833387 14.0883339,3.27288607 14.0883339,3.49992919 C14.0883339,3.72683063 14.2730277,3.91152446 14.4999292,3.91152446 Z" id="Instagram"></path>
                </g>
            </g>
        </g>
    </g>
</svg>