<?xml version="1.0" encoding="UTF-8"?>
<svg width="26px" height="19px" viewBox="0 0 26 19" version="1.1" xmlns="http://www.w3.org/2000/svg" xmlns:xlink="http://www.w3.org/1999/xlink">
    <!-- Generator: sketchtool 53.2 (72643) - https://sketchapp.com -->
    <title>1F277F08-86A2-42B9-BF38-25AFA54A058C</title>
    <desc>Created with sketchtool.</desc>
    <g id="Dekstop" stroke="none" stroke-width="1" fill="none" fill-rule="evenodd">
        <g id="Footer" transform="translate(-207.000000, -606.000000)" fill="#000000" fill-rule="nonzero" stroke="#000000" stroke-width="0.5">
            <g id="Media-social" transform="translate(100.000000, 606.000000)">
                <g id="youtube" transform="translate(120.000000, 9.500000) scale(1, -1) translate(-120.000000, -9.500000) translate(108.000000, 1.000000)">
                    <path d="M23.7595995,3.80651054 C23.7595995,3.84345265 24,5.72823686 24,7.57607895 L24,9.31300808 C24,11.1977923 23.7595995,13.0825765 23.7595995,13.0825765 C23.7595995,13.156504 23.519199,14.8195489 22.7178483,15.5956365 C21.8363954,16.5195792 20.8347423,16.6304489 20.2737921,16.667391 L20.1535918,16.667391 C16.9081849,17 12.0200256,17 11.9799744,17 C11.7395739,17 5.88981252,16.9260725 4.04675759,16.7782607 C3.92655733,16.7413186 3.84640818,16.7413186 3.72620792,16.7413186 C3.08510859,16.667391 2.08345544,16.5565214 1.24205366,15.6695641 C0.480801022,14.8934765 0.240400511,13.267417 0.240400511,13.1934895 C0.240400511,13.1565473 0,11.2717631 0,9.42392105 L0,7.68694861 C0,5.8021644 0.240400511,3.91738019 0.240400511,3.91738019 C0.240400511,3.84345265 0.480801022,2.18040776 1.28215171,1.40432015 C2.1636046,0.480420754 3.16525774,0.369551095 3.72625487,0.332608978 L3.84645513,0.332608978 C7.05181093,0.036942117 11.9399703,0 11.9800214,0 C12.0601706,0 16.9082319,0.036942117 20.1536388,0.258681436 L20.3138901,0.258681436 C20.8347423,0.295666861 21.8363954,0.40653652 22.7579463,1.33043591 C23.519199,2.10652353 23.7595995,3.73258299 23.7595995,3.80651054 Z M23.1986493,9.38693562 L23.1986024,9.38693562 L23.1986024,7.6500065 C23.1986024,5.87609195 22.9982529,4.02829316 22.9582018,3.95436562 C22.8780527,3.5478291 22.6376522,2.36524827 22.1568512,1.84784209 C21.4757007,1.10869659 20.674397,1.03476905 20.2336471,0.997826934 L20.0733957,0.997826934 C16.8680869,0.776087616 12.0199786,0.739145499 11.9799275,0.739145499 C11.9398764,0.739145499 7.09181507,0.776087616 3.88645928,0.997826934 L3.76625902,0.997826934 C3.285458,1.03476905 2.52420537,1.10869659 1.80300383,1.84784209 C1.32220281,2.36524827 1.04170425,3.5478291 1.00165314,3.95436562 C1.00165314,3.95436562 0.761252634,5.8021644 0.761252634,7.6500065 L0.761252634,9.38697893 C0.761252634,11.1978356 1.00165314,13.0456777 1.00165314,13.0826198 C1.0417512,13.4891563 1.32220281,14.6717805 1.80300383,15.1522012 C2.44410316,15.8174192 3.2454069,15.9282888 3.80635708,15.9652309 C3.92655733,15.9652309 4.04675759,16.0021731 4.16695784,16.0021731 C5.92991057,16.186927 11.9399233,16.2608545 11.9799744,16.2608545 C12.0200256,16.2608545 16.8680869,16.2608545 20.0734427,16.0391152 L20.1936429,16.0391152 C20.6343928,16.0021298 21.4356966,15.9282455 22.116847,15.1891 C22.6376991,14.6716938 22.8780996,13.489113 22.9582488,13.0825765 C22.9582488,13.0825765 23.1986493,11.2347777 23.1986493,9.38693562 Z M16.8094653,8.26317776 C16.9237504,8.33893779 17,8.45266664 17,8.60423109 C17,8.75579555 16.9237951,8.86947999 16.80951,8.94528443 L9.57147003,12.96212 C9.49526509,13 9.45718495,13 9.38098002,13 C9.30477508,13 9.26669494,13 9.19049001,12.96212 C9.07620493,12.8863156 9,12.7726311 9,12.6210667 L9,4.39790666 C9,4.2463422 9.07620493,4.13265776 9.19049001,4.05685332 C9.30477508,3.98104889 9.45714031,3.98104889 9.57142538,4.05685332 L16.8094653,8.26317776 Z M9.76191539,11.97684 L15.8571046,8.60418669 L9.76191539,5.0420889 L9.76191539,11.97684 Z" id="Youtube"></path>
                </g>
            </g>
        </g>
    </g>
</svg>