<?xml version="1.0" encoding="UTF-8"?>
<svg width="14px" height="14px" viewBox="0 0 14 14" version="1.1" xmlns="http://www.w3.org/2000/svg" xmlns:xlink="http://www.w3.org/1999/xlink">
    <!-- Generator: sketchtool 53.2 (72643) - https://sketchapp.com -->
    <title>050336AB-BA13-4F0C-AFB6-196A95319336</title>
    <desc>Created with sketchtool.</desc>
    <g id="Dekstop" stroke="none" stroke-width="1" fill="none" fill-rule="evenodd">
        <g id="Journal" transform="translate(-429.000000, -475.000000)" fill="#FFFFFF">
            <g id="1" transform="translate(403.000000, 171.000000)">
                <g id="Detail-text-hover" transform="translate(26.000000, 189.000000)">
                    <g id="stopwatch-(1)" transform="translate(0.000000, 115.000000)">
                        <path d="M7,0 C10.8598,0 14,3.1402 14,7 C14,10.8598 10.8598,14 7,14 C3.1402,14 0,10.8598 0,7 C0,5.13496667 0.724966667,3.38006667 2.04166667,2.05893333 C2.13266667,1.96793333 2.28013333,1.96793333 2.3716,2.05846667 C2.46283333,2.14946667 2.4633,2.29693333 2.37206667,2.3884 C1.14333333,3.62156667 0.466666667,5.25933333 0.466666667,7 C0.466666667,10.6024333 3.39756667,13.5333333 7,13.5333333 C10.6024333,13.5333333 13.5333333,10.6024333 13.5333333,7 C13.5333333,3.47573333 10.7284333,0.594066667 7.23333333,0.470866667 L7.23333333,3.3348 C7.23333333,3.46383333 7.12903333,3.56813333 7,3.56813333 C6.87096667,3.56813333 6.76666667,3.46383333 6.76666667,3.3348 L6.76666667,0.233333333 C6.76666667,0.1043 6.87096667,0 7,0 Z M6.38880922,7.63295971 L4.04732725,4.39635441 C3.97557781,4.29709352 3.98632772,4.16007848 4.07332705,4.07306892 C4.16032638,3.98655943 4.29757533,3.97555822 4.39657456,4.04706607 L7.63254964,6.38807305 C7.84429801,6.54208996 7.97704699,6.77936601 7.99729684,7.03964458 C8.01754668,7.29992315 7.92329741,7.55470112 7.73904882,7.73897135 C7.57130012,7.90698979 7.34480186,8 7.10930367,8 C7.08630385,8 7.06305403,7.99924992 7.03980421,7.9972497 C6.77955621,7.97699747 6.54230804,7.8442329 6.38880922,7.63295971 Z M7.33880191,6.79286749 L5.36506711,5.36521077 L6.79330611,7.33967751 C6.86030559,7.43168761 6.96455479,7.49019404 7.07855391,7.498945 C7.19080305,7.50769596 7.30455217,7.46644143 7.38555155,7.38568256 C7.46630093,7.30467367 7.50780061,7.1929114 7.49880067,7.07889889 C7.48980074,6.96463634 7.43155119,6.8603749 7.33880191,6.79286749 Z" id="Time"></path>
                    </g>
                </g>
            </g>
        </g>
    </g>
</svg>