<?xml version="1.0" encoding="UTF-8"?>
<svg width="12px" height="12px" viewBox="0 0 12 12" version="1.1" xmlns="http://www.w3.org/2000/svg" xmlns:xlink="http://www.w3.org/1999/xlink">
    <!-- Generator: sketchtool 53.2 (72643) - https://sketchapp.com -->
    <title>858A3949-FEE0-42D1-A76C-97C192F7369C</title>
    <desc>Created with sketchtool.</desc>
    <g id="Dekstop" stroke="none" stroke-width="1" fill="none" fill-rule="evenodd">
        <g id="Home" transform="translate(-876.000000, -70.000000)" fill="#FFFFFF" fill-rule="nonzero">
            <g id="Menu" transform="translate(322.000000, 60.000000)">
                <g id="Search" transform="translate(554.000000, 8.000000)">
                    <path d="M11.8962076,13.3880266 L8.97937458,10.4718404 C9.76180971,9.57250554 10.2355289,8.39911308 10.2355289,7.11662971 C10.2355289,4.29356984 7.93878909,2 5.11776447,2 C2.29407851,2 0,4.2962306 0,7.11662971 C0,9.93702882 2.29673985,12.2332594 5.11776447,12.2332594 C6.40053227,12.2332594 7.57418496,11.7596452 8.47371923,10.9773836 L11.3905522,13.8935698 C11.4597472,13.9627494 11.5528942,14 11.6433799,14 C11.7338656,14 11.8270126,13.9654102 11.8962076,13.8935698 C12.0345975,13.7552106 12.0345975,13.5263858 11.8962076,13.3880266 Z M0.71590153,7.11662971 C0.71590153,4.69002217 2.69061876,2.71840355 5.11510313,2.71840355 C7.54224884,2.71840355 9.51430472,4.69268293 9.51430472,7.11662971 C9.51430472,9.5405765 7.54224884,11.5175166 5.11510313,11.5175166 C2.69061876,11.5175166 0.71590153,9.54323725 0.71590153,7.11662971 Z" id="Search-White"></path>
                </g>
            </g>
        </g>
    </g>
</svg>